<svg xmlns="http://www.w3.org/2000/svg" viewBox="0 0 500 466.67"><defs>
<style>
<!-- .cls-1{fill:#fff;} -->
</style>
</defs><g id="Layer_2" data-name="Layer 2"><g id="Layer_7" data-name="Layer 7"><path id="Camera" class="cls-1" d="M450,100H350L324.17,22.84A33.13,33.13,0,0,0,292.67,0H207.34a33.33,33.33,0,0,0-31.67,22.84L150,100H50A50,50,0,0,0,0,150V416.67a49.94,49.94,0,0,0,50,50H450a49.94,49.94,0,0,0,50-50V150A50,50,0,0,0,450,100ZM188.33,64,199.5,30.67A8.11,8.11,0,0,1,207.34,25h85.33a8.4,8.4,0,0,1,7.83,5.67L311.67,64a8.38,8.38,0,0,1-8,11H196.17A8.28,8.28,0,0,1,188.33,64ZM250,383.33a100,100,0,1,1,100-100A100.08,100.08,0,0,1,250,383.33ZM443.67,172.17a25,25,0,1,1,25-25A25,25,0,0,1,443.67,172.17Z"/></g></g></svg>