<svg xmlns="http://www.w3.org/2000/svg" viewBox="0 0 571 558.53"><defs><style>.cls-1{fill:#fff;}</style></defs><g id="Layer_2" data-name="Layer 2"><g id="Layer_10" data-name="Layer 10"><path class="cls-1" d="M571,448.14v-222a30,30,0,0,0-30-30H201.52a30,30,0,0,0-30,30v222a30,30,0,0,0,30,30H443.93L571,558.53l-45.9-80.39H541A30,30,0,0,0,571,448.14ZM271.09,367.73a30.1,30.1,0,1,1,30.1-30.1A30.09,30.09,0,0,1,271.09,367.73Zm100.17,0a30.1,30.1,0,1,1,30.09-30.1A30.1,30.1,0,0,1,371.26,367.73Zm102.71,0a30.1,30.1,0,1,1,30.09-30.1A30.1,30.1,0,0,1,474,367.73Z"/><path class="cls-1" d="M149.41,228.39a50,50,0,0,1,50-50H399.48V30a30,30,0,0,0-30-30H30A30,30,0,0,0,0,30V252a30,30,0,0,0,30,30H45.9L0,362.43,127.07,282h22.34Zm150.5-116.95a30.1,30.1,0,1,1-30.1,30.1A30.09,30.09,0,0,1,299.91,111.44Zm-100.17,0a30.1,30.1,0,1,1-30.09,30.1A30.1,30.1,0,0,1,199.74,111.44ZM97,171.63a30.1,30.1,0,1,1,30.1-30.09A30.09,30.09,0,0,1,97,171.63Z"/></g></g></svg>