<svg xmlns="http://www.w3.org/2000/svg" viewBox="0 0 460.16 500"><defs><style>.cls-1{fill:#fff;}</style></defs><g id="Layer_2" data-name="Layer 2"><g id="Layer_7" data-name="Layer 7"><g id="Chat"><path class="cls-1" d="M334.63,381.12c68.79-33.65,115.59-99.5,115.59-175C450.22,96.58,351.7,7.58,230,7.58S9.85,96.58,9.85,206.09c0,103.12,87,187.84,198.51,197.69C250.23,472.41,440.7,498.52,452.68,500,444.31,496.06,300,447.13,334.63,381.12Zm-45-250.23c14.29,0,25.78,15.6,25.78,34.65s-11.49,34.64-25.78,34.64c-14.45,0-25.94-15.6-25.94-34.64S275.19,130.89,289.64,130.89Zm-119.21,0c14.29,0,25.95,15.6,25.95,34.65s-11.66,34.64-25.95,34.64-25.94-15.6-25.94-34.64S156.15,130.89,170.43,130.89ZM301.13,314.3c-18.72,0-34-21.35-35.79-48.6h-142V255H336.44a29,29,0,0,1,.32,5.26,29.93,29.93,0,0,1-.32,5.42C334.79,293,319.36,314.3,301.13,314.3Z"/><g id="Ears"><ellipse class="cls-1" cx="77.19" cy="78.68" rx="82.1" ry="73.54" transform="translate(-32.7 87.24) rotate(-50)"/><ellipse class="cls-1" cx="382.97" cy="78.9" rx="73.54" ry="82.1" transform="translate(38.88 264.63) rotate(-40)"/></g></g></g></g></svg>