<svg xmlns="http://www.w3.org/2000/svg" viewBox="0 0 451.97 500"><defs><style>.cls-1{fill:#fff;}</style></defs><g id="Layer_2" data-name="Layer 2"><g id="Layer_7" data-name="Layer 7"><g id="Discover"><path class="cls-1" d="M442.49,125C426,96.38,390.07,82.3,344.4,82.3q-10.75,0-22.2,1C298.57,32.19,264.22,0,226,0S153.4,32.19,129.76,83.34c-7.61-.69-15-1-22.19-1C61.89,82.3,26,96.38,9.48,125c-19.12,33.11-8.42,79,24.06,125C1.06,296-9.64,341.89,9.48,375,26,403.62,61.9,417.7,107.57,417.7c7.17,0,14.58-.35,22.19-1C153.4,467.81,187.75,500,226,500s72.59-32.19,96.22-83.34q11.43,1,22.2,1c45.68,0,81.57-14.08,98.09-42.7,19.12-33.11,8.42-79-24.07-125C450.91,204,461.61,158.11,442.49,125ZM107.57,377.7c-32,0-55.12-8.28-63.45-22.7-9-15.54-3-42.6,15.88-72.61a395.9,395.9,0,0,0,42.23,39,398.4,398.4,0,0,0,12.71,56.13C112.45,377.65,110,377.7,107.57,377.7ZM97.07,263.24Q90.5,256.66,84.58,250q5.91-6.66,12.49-13.24-.18,6.57-.18,13.24T97.07,263.24Zm5.17-84.68A398.11,398.11,0,0,0,60,217.61c-18.9-30-24.85-57.08-15.88-72.61,8.33-14.43,31.45-22.7,63.45-22.7,2.43,0,4.88,0,7.37.14A396.88,396.88,0,0,0,102.24,178.56Zm194.43-51q2.82,8.44,5.22,17.43-5.59-3.43-11.36-6.77T279,131.73Q287.92,129.34,296.67,127.54ZM226,40c17.94,0,38.41,18.67,55,50.05A397.58,397.58,0,0,0,226,107.12a397.28,397.28,0,0,0-55-17.07C187.58,58.67,208.05,40,226,40Zm-70.69,87.54q8.75,1.78,17.7,4.2-5.78,3.13-11.55,6.46T150.07,145Q152.47,136,155.29,127.54ZM150.07,355q5.6,3.45,11.37,6.78T173,368.26q-9,2.4-17.72,4.2C153.41,366.83,151.67,361,150.07,355ZM226,460c-17.93,0-38.4-18.67-54.94-50.06a395.83,395.83,0,0,0,55-17.06,396.13,396.13,0,0,0,54.94,17.06C264.39,441.33,243.92,460,226,460Zm70.69-87.54q-8.75-1.8-17.71-4.2,5.79-3.13,11.57-6.47T301.89,355Q299.49,364,296.67,372.46Zm15.6-72.63a436.93,436.93,0,0,1-41.74,27.32A442.64,442.64,0,0,1,226,349.63a437.58,437.58,0,0,1-44.55-22.48,438.43,438.43,0,0,1-41.75-27.33,444.62,444.62,0,0,1,0-99.64A443.27,443.27,0,0,1,226,150.37a440.44,440.44,0,0,1,44.54,22.47,437,437,0,0,1,41.74,27.33,435.22,435.22,0,0,1,2.8,49.83A437.51,437.51,0,0,1,312.27,299.83ZM407.85,355c-8.33,14.42-31.45,22.7-63.45,22.7q-3.64,0-7.38-.14a398.4,398.4,0,0,0,12.71-56.13A395.13,395.13,0,0,0,392,282.38C410.87,312.4,416.82,339.46,407.85,355Zm-53-118.24q6.58,6.59,12.5,13.24-5.92,6.66-12.5,13.24.18-6.57.18-13.24T354.89,236.76Zm-5.17-58.2A396.88,396.88,0,0,0,337,122.44q3.74-.14,7.38-.14c32,0,55.12,8.27,63.45,22.7,9,15.53,3,42.6-15.88,72.62A396.29,396.29,0,0,0,349.72,178.56Z"/></g></g></g></svg>