<svg xmlns="http://www.w3.org/2000/svg" viewBox="0 0 580 470"><defs>
<style>
<!-- .cls-1{fill:#fff;} -->
</style>
</defs><g id="Layer_2" data-name="Layer 2"><g id="Layer_7" data-name="Layer 7"><g id="Forum"><path class="cls-1" d="M550,370H501.35L580,470,414.76,370H210a30,30,0,0,1-30-30V290H370a50.06,50.06,0,0,0,50-50V100H550a30,30,0,0,1,30,30V340A30,30,0,0,1,550,370Z"/><path class="cls-1" d="M370,0H30A30,30,0,0,0,0,30V240a30,30,0,0,0,30,30H78.65L0,370,165.24,270H370a30,30,0,0,0,30-30V30A30,30,0,0,0,370,0ZM350,210.32a9.68,9.68,0,0,1-9.68,9.68H59.68A9.68,9.68,0,0,1,50,210.32v-.64A9.68,9.68,0,0,1,59.68,200H340.32a9.68,9.68,0,0,1,9.68,9.68Zm0-75a9.68,9.68,0,0,1-9.68,9.68H59.68A9.68,9.68,0,0,1,50,135.32v-.64A9.68,9.68,0,0,1,59.68,125H340.32a9.68,9.68,0,0,1,9.68,9.68Zm0-75A9.68,9.68,0,0,1,340.32,70H59.68A9.68,9.68,0,0,1,50,60.32v-.64A9.68,9.68,0,0,1,59.68,50H340.32A9.68,9.68,0,0,1,350,59.68Z"/></g></g></g></svg>